# xmcd CD database file
#
# Track frame offsets:
#	150
#	94797
#	132957
#	180862
#	197837
#	251810
#
# Disc length: 3646 seconds
#
# Revision: 1
# Processed by: cddbd v1.5.1PL0 Copyright (c) Steve Scherf et al.
# Submitted via: CDex 1.51
#
DISCID=4b0e3c06
DTITLE=ベートーベン - ピアノ協奏曲第5番　皇帝
DYEAR=1900
DGENRE=Classical
TTITLE0=ピアノ協奏曲第5番　変ホ長調　Op73　皇帝　?
TTITLE1=ピアノ協奏曲第5番　変ホ長調　Op73　皇帝　?
TTITLE2=ピアノ協奏曲第5番　変ホ長調　Op73　皇帝　?
TTITLE3=合唱幻想曲　ハ短調　Op80　?
TTITLE4=合唱幻想曲　ハ短調　Op80　?
TTITLE5=合唱幻想曲　ハ短調　Op80　?
EXTD=
EXTT0=
EXTT1=
EXTT2=
EXTT3=
EXTT4=
EXTT5=
PLAYORDER=
